<?xml version="1.0" encoding="UTF-8" standalone="no"?>
<!-- Created with Inkscape (http://www.inkscape.org/) -->

<svg
   width="150mm"
   height="150mm"
   viewBox="0 0 150 150"
   version="1.1"
   id="svg1"
   xml:space="preserve"
   inkscape:version="1.3 (0e150ed6c4, 2023-07-21)"
   sodipodi:docname="logo.svg"
   xmlns:inkscape="http://www.inkscape.org/namespaces/inkscape"
   xmlns:sodipodi="http://sodipodi.sourceforge.net/DTD/sodipodi-0.dtd"
   xmlns="http://www.w3.org/2000/svg"
   xmlns:svg="http://www.w3.org/2000/svg"><sodipodi:namedview
     id="namedview1"
     pagecolor="#ffffff"
     bordercolor="#000000"
     borderopacity="0.25"
     inkscape:showpageshadow="2"
     inkscape:pageopacity="0.0"
     inkscape:pagecheckerboard="0"
     inkscape:deskcolor="#d1d1d1"
     inkscape:document-units="mm"
     inkscape:zoom="1"
     inkscape:cx="332"
     inkscape:cy="284.5"
     inkscape:window-width="1920"
     inkscape:window-height="991"
     inkscape:window-x="-9"
     inkscape:window-y="-9"
     inkscape:window-maximized="1"
     inkscape:current-layer="layer1" /><defs
     id="defs1" /><g
     inkscape:label="Layer 1"
     inkscape:groupmode="layer"
     id="layer1"
     transform="translate(-18.590816,-49.113285)"><g
       id="g4"
       transform="translate(-0.23221586,-0.39309182)"><path
         id="path1-5"
         style="fill:#001123;fill-opacity:1;stroke-width:0.837517"
         d="m 117.93023,61.562652 c -9.00641,-0.191054 -17.87875,3.162389 -24.99016,8.589741 -2.148131,1.688493 -4.249611,3.528811 -5.710064,5.867241 -1.862947,-0.07395 -3.742335,-0.0191 -5.611949,-0.05201 -8.890343,-0.03953 -17.788264,-0.114372 -26.671144,0.289739 -5.441699,0.610357 -10.24975,5.01516 -11.191638,10.433048 -0.428231,2.452576 -0.16314,4.954859 -0.284505,7.429721 -0.04925,3.776632 -0.07328,7.553568 -0.108986,11.330348 -1.807704,0.68978 -3.224892,2.06635 -4.836936,3.0933 -6.839799,4.97299 -12.746664,11.54076 -15.920527,19.45674 -3.390059,8.78378 -3.172321,18.83652 0.309412,27.55656 3.126561,7.54211 8.956767,13.6997 15.653962,18.23473 8.555244,5.76753 18.487583,9.17822 28.540315,11.23216 9.099637,1.85 18.41007,2.58231 27.690987,2.41756 5.440473,-0.10166 10.889543,-0.3676 16.285933,-1.08626 10.04391,-1.41047 19.98594,-4.61389 28.40319,-10.37835 5.77704,-4.01636 10.82546,-9.4094 13.4338,-16.0234 2.4908,-6.30441 2.23231,-13.57781 -0.53277,-19.74992 -2.17267,-4.84444 -5.60638,-9.10829 -9.79813,-12.35532 -1.356,-1.02866 -2.81134,-1.93662 -4.351,-2.6589 0.28553,-4.06817 0.14798,-8.18815 -0.5433,-12.21398 -0.50848,-3.29506 -1.99905,-6.3195 -2.96749,-9.48119 -0.23374,-1.89069 -0.0992,-3.916357 -0.18769,-5.874187 3.27825,-0.05678 6.70485,0.0201 9.76655,-1.322104 0.37873,-0.173106 0.80582,-0.611136 0.94365,0.04849 1.22495,2.214035 1.11504,4.898051 0.42257,7.262091 -0.42822,1.64441 -0.61082,3.56229 0.46626,5.00929 1.58088,2.39281 5.21507,3.35304 7.60333,1.60094 2.21243,-1.72582 3.88244,-4.13778 4.7094,-6.81955 2.53202,0.29501 5.35247,0.0692 7.41246,-1.57594 2.44259,-2.252123 2.05637,-6.862796 -0.91517,-8.484078 -2.64867,-1.47109 -5.64883,-2.414954 -7.88494,-4.542767 -1.18922,-0.9728 -2.31275,-2.021556 -3.45588,-3.047229 1.31325,-3.142782 1.36564,-7.046348 -0.72143,-9.875103 -1.66595,-2.374478 -4.51105,-3.43057 -6.56762,-5.377303 -0.95106,-1.127105 -1.51078,-2.547986 -2.61451,-3.556825 -2.41075,-2.550909 -5.99655,-3.787586 -9.46925,-3.607428 -2.28248,0.04841 -4.64585,0.272402 -6.8333,-0.537828 -3.09719,-0.750993 -6.27239,-1.345346 -9.47343,-1.232088 z"
         sodipodi:nodetypes="cccccccccccccccccccccccccccccccccccccccc" /><path
         style="fill:#fefefd;fill-opacity:1;stroke-width:0.837517"
         d="m 88.481456,182.13938 c -26.347175,-0.91091 -46.935718,-8.82944 -56.730235,-21.81893 -4.097769,-5.43446 -6.009569,-10.85521 -6.240146,-17.69345 -0.257595,-7.63947 1.366819,-13.16961 5.748146,-19.56884 2.481705,-3.62471 7.641948,-8.5944 11.51868,-11.09333 l 1.938935,-1.24984 0.03518,0.83228 c 0.01935,0.45776 0.0067,3.5745 -0.02781,6.9261 l -0.06307,6.0938 -0.602912,0.68915 c -2.331522,2.66499 -3.477454,7.48806 -2.579946,10.85861 0.668071,2.50894 2.821871,5.68135 5.306574,7.81623 4.67182,4.01408 11.232835,6.46563 21.088458,7.87977 2.131547,0.30585 12.072085,0.39955 14.957524,0.141 5.321632,-0.47686 11.022023,-1.75956 15.511507,-3.49041 11.229109,-4.32921 20.472369,-12.18628 25.005479,-21.25548 1.36892,-2.73873 2.57115,-6.16083 3.0361,-8.6421 0.44231,-2.36046 0.50814,-7.88484 0.11566,-9.70701 -0.4694,-2.17934 -1.7824,-2.98074 -2.9124,-1.77762 -0.52958,0.56386 -0.53728,0.63235 -0.5421,4.81965 -0.005,4.58839 -0.19768,5.88892 -1.42822,9.65453 -0.85129,2.60505 -2.68574,6.26538 -4.07503,8.13105 l -1.13966,1.53042 -0.0567,-17.56015 -0.0567,-17.560164 -32.017801,0.05427 -32.017793,0.05427 -0.05645,23.560234 -0.05645,23.56023 -1.370027,-1.23981 c -2.493891,-2.25687 -2.242125,1.00175 -2.166589,-28.04241 0.04548,-17.495615 0.141975,-25.705073 0.310752,-26.443998 0.751663,-3.290888 3.229465,-5.559638 6.680437,-6.116804 2.374486,-0.383374 41.759185,-0.310108 43.988387,0.08182 3.451314,0.606798 5.744474,1.909773 8.073234,4.587189 4.53127,5.209707 10.44664,8.006494 19.65923,9.29488 l 1.82815,0.255669 0.0275,2.024244 c 0.0929,6.85024 0.13395,7.27778 0.85331,8.8811 2.3198,5.1704 2.99478,8.49302 2.99611,14.74846 8.3e-4,5.1077 -0.23446,6.82483 -1.59584,11.63363 -3.32224,11.73518 -12.23295,22.23664 -23.79351,28.04116 -6.84163,3.43516 -12.630502,5.08078 -22.916917,6.51466 -0.843832,0.11763 -7.430877,0.52829 -9.306906,0.58022 -0.884669,0.0245 -0.885088,0.025 -0.22159,0.23127 1.323326,0.41152 7.065585,1.30162 10.532352,1.63262 4.190356,0.40008 16.111001,0.46044 20.625121,0.10443 20.29554,-1.60059 34.51948,-8.98624 37.38666,-19.41267 1.49312,-5.42973 -0.53724,-11.36941 -5.59457,-16.3665 l -2.02279,-1.99871 0.0833,-1.04819 c 0.0918,-1.15399 0.21308,-1.22776 1.0991,-0.66842 5.99965,3.78758 10.62586,10.31801 11.70782,16.52696 0.42675,2.44897 0.3101,6.39415 -0.25359,8.57646 -0.46577,1.80325 -2.18968,5.4828 -3.43951,7.3414 -1.1239,1.67134 -4.59899,5.3027 -6.66236,6.96195 -4.70084,3.78017 -12.0893,7.33345 -19.28591,9.27503 -2.14251,0.57803 -8.32298,1.78042 -10.27196,1.99837 -4.21071,0.47088 -5.76784,0.58555 -9.306904,0.68541 -6.526484,0.18415 -9.659149,0.233 -11.301243,0.17623 z M 58.254811,91.539057 c 1.355404,-0.70091 1.874296,-2.393397 1.216468,-3.967803 -0.443967,-1.062566 -1.276803,-1.536693 -2.722834,-1.550085 -1.109576,-0.0103 -1.26594,0.05335 -1.941188,0.789745 -2.376203,2.591436 0.34983,6.330036 3.447554,4.728143 z m 9.941836,-0.237235 c 1.007634,-0.84786 1.399232,-1.728861 1.225514,-2.757089 -0.498482,-2.950505 -4.157015,-3.60649 -5.43144,-0.973873 -0.532886,1.100807 -0.54101,1.387012 -0.07261,2.55776 0.69508,1.737186 2.892239,2.33967 4.278497,1.173202 z m 9.470105,0.146942 c 1.130598,-0.689368 1.466802,-1.380965 1.350873,-2.778872 -0.320651,-3.866674 -5.71529,-3.494263 -5.71529,0.394545 0,2.306832 2.368975,3.60103 4.364417,2.384327 z m 29.278698,-1.041645 c 1.5765,-0.18932 2.06605,-0.822927 1.52023,-1.967528 -0.21221,-0.445014 -0.57882,-0.810808 -0.89119,-0.889208 -0.29187,-0.07328 -3.18442,-0.100804 -6.42788,-0.06122 l -5.897196,0.07194 -0.603423,0.603766 c -0.717953,0.718372 -0.554545,1.631876 0.376137,2.10277 0.595391,0.301247 9.690262,0.407603 11.923322,0.139438 z m 3.86523,73.849621 c 5.21781,-3.37303 7.54299,-5.26427 11.47229,-9.33133 2.73007,-2.82577 6.57203,-7.9731 6.67846,-8.94754 0.13358,-1.22311 0.29317,7.79121 0.16843,9.51322 -0.3361,4.63971 -3.2157,7.61642 -8.62821,8.91922 -1.94108,0.46722 -9.23809,1.64168 -11.30124,1.81895 l -1.66195,0.14279 z M 92.326094,147.30578 c -0.04263,-0.12012 -3.834378,-4.04716 -8.426047,-8.72672 l -8.348494,-8.5083 6.132559,-6.07687 c 3.372915,-3.34228 7.25761,-7.17322 8.632662,-8.51321 l 2.500097,-2.43634 1.312741,1.44035 c 0.722006,0.79219 1.317079,1.53948 1.32238,1.66065 0.005,0.12116 -3.104457,3.33557 -6.910569,7.14312 l -6.920217,6.92283 7.072084,7.09463 7.072084,7.09462 -0.650457,0.69823 c -0.838572,0.90018 -2.316363,2.27335 -2.538648,2.35896 -0.09494,0.0366 -0.20752,-0.0318 -0.250175,-0.15195 z m -33.824207,-3.3595 c -1.138998,-0.45716 -1.318922,-2.31283 -0.301824,-3.11289 0.530248,-0.41709 0.827475,-0.44826 3.64922,-0.38279 3.053645,0.0709 3.075144,0.075 3.606222,0.69301 0.821269,0.95574 0.581923,2.29657 -0.49777,2.78851 -0.648347,0.29541 -5.727384,0.30655 -6.455848,0.0142 z m 0.215058,-7.33267 c -1.440814,-0.41511 -1.681701,-2.65652 -0.350685,-3.26297 0.354018,-0.1613 2.126338,-0.25184 4.919415,-0.25131 3.917301,7.4e-4 4.437884,0.0446 5.065067,0.42707 1.497405,0.91305 1.055732,2.84382 -0.722911,3.16022 -1.279558,0.22761 -8.060288,0.17206 -8.910886,-0.073 z m 36.107906,-4.53519 c -0.746654,-0.81485 -1.357556,-1.54954 -1.357556,-1.63266 0,-0.0831 0.822668,-0.93551 1.82814,-1.89423 1.005481,-0.95871 4.190508,-4.08143 7.077845,-6.93938 l 5.24971,-5.19627 -6.85478,-7.00798 c -3.77012,-3.85439 -7.01822,-7.24135 -7.218001,-7.52657 -0.355953,-0.5082 -0.334764,-0.54706 1.057499,-1.939324 l 1.420722,-1.42073 8.84051,8.873104 8.84052,8.87311 -0.71889,0.74171 c -2.53935,2.61993 -16.463876,16.43355 -16.618607,16.48622 -0.104254,0.0355 -0.800449,-0.60216 -1.547112,-1.417 z m -35.81527,-5.55348 c -1.348628,-0.3605 -1.881205,-2.03597 -1.008295,-3.17202 0.373868,-0.48658 0.591086,-0.55 1.89732,-0.55399 1.344105,-0.004 1.522639,0.0508 2.010392,0.61724 1.492631,1.73371 -0.410367,3.77412 -2.899417,3.10877 z m -0.4988,-7.61073 c -0.274337,-0.11282 -0.663338,-0.55017 -0.864434,-0.97188 -0.449898,-0.94343 -0.102119,-2.04529 0.747492,-2.36831 0.293591,-0.11163 3.612972,-0.20296 7.376405,-0.20296 6.780419,0 6.847747,0.004 7.409177,0.49858 0.849518,0.74758 0.955347,1.71925 0.273616,2.51217 l -0.555014,0.64554 -6.944221,0.046 c -3.870902,0.0256 -7.164973,-0.0448 -7.443021,-0.15913 z m 0.27721,-7.2877 c -1.285329,-0.5563 -1.694707,-2.2057 -0.775574,-3.12483 0.405174,-0.40518 0.73864,-0.44319 3.887946,-0.44319 3.361952,0 3.457848,0.0131 3.988674,0.54391 0.669721,0.66972 0.72436,1.84313 0.120561,2.58924 -0.40525,0.50078 -0.559135,0.52535 -3.600879,0.5749 -1.747646,0.0285 -3.376977,-0.0345 -3.620728,-0.14003 z m 13.916608,-0.059 c -0.453348,-0.22569 -1.175011,-1.40425 -1.175011,-1.91892 0,-0.12457 0.258156,-0.53329 0.573682,-0.90828 l 0.573682,-0.68178 h 4.200642 c 4.164477,0 4.205323,0.005 4.74455,0.54391 0.669611,0.66961 0.724335,1.84307 0.120745,2.58924 -0.414069,0.5119 -0.510434,0.52416 -4.487257,0.57069 -2.593011,0.0303 -4.240356,-0.0402 -4.551033,-0.19486 z m 78.057651,-6.5774 c 0.88117,-2.55762 0.91811,-6.683662 0.0821,-9.165443 -1.06005,-3.146726 -3.99344,-6.345346 -7.36068,-8.026225 l -1.95248,-0.974652 0.61804,-0.573071 c 1.55992,-1.446442 4.05916,-0.243299 8.71071,4.193355 3.50404,3.342161 6.22051,5.201365 9.57593,6.553938 0.94892,0.382511 1.72531,0.783974 1.72531,0.892156 0,0.209622 -1.46138,0.324153 -3.10231,0.243123 -1.22411,-0.06047 -3.64964,-0.819016 -4.45698,-1.393888 -0.3285,-0.23391 -0.65667,-0.425291 -0.72926,-0.425291 -0.0726,0 -0.13317,0.922374 -0.13462,2.049731 -0.004,3.087657 -0.45902,4.517787 -2.04475,6.426197 -1.0596,1.27521 -1.32072,1.33133 -0.93096,0.20007 z m -92.609155,-1.15793 c -0.744913,-0.58595 -0.818338,-1.96537 -0.140678,-2.64303 0.428574,-0.42857 0.73864,-0.44319 9.405139,-0.44319 h 8.96195 l 0.344956,0.49249 c 0.562049,0.80244 0.446723,2.05441 -0.23891,2.59373 -0.567861,0.44668 -0.819225,0.45927 -9.166229,0.45927 -8.347011,0 -8.598375,-0.0126 -9.166228,-0.45927 z M 128.81139,92.172714 c -5.01341,-0.650583 -9.1806,-1.71737 -11.74444,-3.006527 -2.76609,-1.390864 -4.12523,-2.508614 -7.97734,-6.560563 -3.46319,-3.64283 -6.11098,-4.661945 -12.595621,-4.847924 l -3.95349,-0.113383 1.183579,-1.204793 c 4.328253,-4.405859 11.700982,-8.063714 18.663062,-9.259361 2.28448,-0.392326 7.08771,-0.443306 9.59423,-0.101817 0.95335,0.129891 3.07956,0.586664 4.72488,1.015062 2.83559,0.738305 3.107,0.770122 5.20744,0.610491 5.32241,-0.404495 7.42683,0.469931 9.28382,3.857595 0.89968,1.641282 0.78715,1.542949 5.69502,4.976341 1.91961,1.342891 2.28787,1.920326 2.29765,3.602729 0.007,1.099417 -0.40893,2.655004 -0.90637,3.394825 -0.0283,0.04213 -0.34774,-0.255024 -0.70985,-0.66029 -0.65296,-0.730792 -0.67803,-0.737785 -3.05485,-0.852123 -1.54978,-0.07454 -2.66252,-0.02362 -3.14948,0.144178 -2.2881,0.788447 -3.53655,3.811799 -2.29437,5.55628 0.60528,0.850046 2.12783,1.607622 3.23094,1.607622 1.56973,0 0.40752,1.10502 -1.74154,1.65583 -1.2444,0.318943 -9.69758,0.452602 -11.75327,0.185828 z m -0.88637,-9.096045 c 1.58659,-0.791462 2.32672,-1.929706 2.32672,-3.578241 0,-1.931037 -0.82613,-3.239833 -2.54832,-4.037183 -4.21062,-1.949454 -7.70842,4.154109 -4.11393,7.178684 0.39237,0.330149 0.97993,0.658824 1.3057,0.73039 0.32577,0.07161 0.69202,0.164447 0.81389,0.206398 0.34901,0.12015 1.48785,-0.136842 2.21594,-0.500048 z"
         id="path1-8"
         sodipodi:nodetypes="csssscsccsssssssssscsscccccccssssssscsscssscssssscscsssssssccssscsssscsssssscssscssccsssssscssscsscscscccssssssssssssssssssssscssscccsssssccssssscscssscssssscssscscsssssscssssssscssscsscssscsssscssssssscsssssssssssscss" /><path
         id="path1-8-2"
         style="fill:#1a3962;fill-opacity:0.435294;stroke-width:0.837517"
         d="m 128.98655,145.86416 c -0.008,7.4e-4 -0.0168,0.0374 -0.0251,0.11382 -0.10642,0.97445 -3.94846,6.12149 -6.67853,8.94725 -3.92929,4.06706 -6.25438,5.95857 -11.47219,9.33158 l -3.27239,2.11509 1.66194,-0.14283 c 0.58099,-0.0499 2.03373,-0.28095 3.20834,-0.45097 6.13617,-2.88445 12.94968,-9.50477 16.74759,-14.66452 -0.0277,-2.58307 -0.0959,-5.2559 -0.16966,-5.24942 z" /><path
         id="path3"
         style="fill:#1a3962;fill-opacity:0.435294;stroke:none;stroke-width:0.221593"
         d="m 98.559917,81.506969 c 2.707353,1.443916 4.680193,3.603957 6.866353,5.970459 1.18321,0.01093 2.00109,0.03616 2.14842,0.07314 0.31237,0.0784 0.67892,0.443955 0.89113,0.888969 0.39827,0.835182 0.23824,1.395182 -0.48603,1.712152 2.09052,2.066507 4.59825,4.146261 8.08511,5.943194 l 0.22376,-4.33e-4 4.3e-4,0.11902 c 3.28531,1.66059 7.44431,3.064221 12.92554,3.97482 -0.0143,-0.771162 -0.0291,-1.422631 -0.0433,-2.46392 l -0.0277,-2.024199 -1.82814,-0.255785 c -9.21257,-1.288385 -15.12775,-4.085086 -19.65902,-9.294788 -2.32875,-2.677413 -4.62212,-3.980437 -8.073429,-4.587234 -0.117194,-0.0206 -0.711345,-0.03657 -1.023136,-0.0554 z" /></g></g></svg>
